<svg width="39" height="31" viewBox="0 0 39 31" fill="none" xmlns="http://www.w3.org/2000/svg">
<path id="Vector" fill-rule="evenodd" clip-rule="evenodd" d="M13.3109 0.882293C13.2028 0.864717 13.0929 0.861583 12.984 0.872975C10.8177 1.0967 7.51662 2.24945 5.56514 3.29551C5.43625 3.36499 5.32073 3.45684 5.22398 3.56675C4.41107 4.48705 3.66999 5.98956 3.08892 7.41304C2.48965 8.87248 1.99296 10.4148 1.71204 11.5308C0.782957 15.1564 0.264819 19.5126 0.177716 23.647C0.17458 23.8533 0.223152 24.0571 0.319001 24.2398C1.08416 25.7188 2.7432 27.0939 4.40661 28.101C6.08798 29.121 8.05358 29.9287 9.63873 30.0909C9.82865 30.11 10.0204 30.0848 10.199 30.0173C10.3775 29.9498 10.538 29.8419 10.6679 29.702C11.0665 29.274 11.7459 28.2732 12.2594 27.4957C12.641 26.9168 13.3305 26.621 14.0172 26.7161C15.5106 26.9228 17.2917 27.0439 19.4266 27.0543C21.5591 27.0647 23.3416 26.9608 24.8374 26.7684C25.5224 26.6802 26.2051 26.9839 26.5814 27.5629C27.0874 28.3481 27.757 29.3554 28.1539 29.7873C28.2824 29.9285 28.4419 30.0379 28.6198 30.1072C28.7976 30.1764 28.9892 30.2034 29.1793 30.1862C30.7659 30.0395 32.7367 29.251 34.428 28.2474C36.1011 27.2566 37.7735 25.8977 38.5556 24.4263C38.6523 24.2443 38.702 24.041 38.7001 23.8348C38.6559 19.6999 38.1777 15.3362 37.2892 11.7017C36.9319 10.298 36.4837 8.91891 35.9474 7.5733C35.3802 6.14422 34.6538 4.63198 33.8525 3.70638C33.7561 3.59528 33.6406 3.5023 33.5114 3.43181C31.5728 2.36678 28.2832 1.18188 26.1166 0.937026C26.0086 0.924805 25.8995 0.92687 25.7921 0.943167C25.3065 1.03418 24.8503 1.24228 24.4633 1.54943C24.348 1.64128 24.2357 1.73639 24.1264 1.83459C22.8386 2.99154 21.2702 3.99322 19.5391 3.98671C17.8033 3.97824 16.2401 2.95379 14.9583 1.78327C14.8522 1.68635 14.7431 1.59237 14.6312 1.50148C14.2479 1.19095 13.7948 0.978431 13.3109 0.882293ZM29.6922 25.4591C29.097 25.7551 28.8346 26.4986 29.2061 27.05C29.4398 27.3968 29.8643 27.5662 30.2636 27.4418C31.1541 27.1644 32.1783 26.707 33.1691 26.1198C35.4355 24.7783 36.2424 22.1028 36.0174 19.4787C35.7997 16.9395 35.4197 14.4629 34.8894 12.2899C34.5591 10.9967 34.1456 9.72626 33.6516 8.48637C33.5316 8.18347 33.4095 7.89143 33.2866 7.61378C32.638 6.14859 31.3907 5.07351 29.8933 4.50341C28.6462 4.02863 27.3139 3.62999 26.2731 3.45268C26.1575 3.43297 26.0372 3.45452 25.9443 3.5262C25.7302 3.69299 25.5342 3.88189 25.3597 4.08976C25.2176 4.25735 25.3162 4.50899 25.5312 4.55449C26.1303 4.6813 26.6758 4.82458 27.1705 4.97909C28.9288 5.52833 30.1944 6.28113 30.8108 7.11057C31.0062 7.37373 31.089 7.70371 31.0411 8.02794C30.9931 8.35216 30.8184 8.64407 30.5552 8.83944C30.4249 8.93617 30.2768 9.0063 30.1194 9.04581C29.962 9.08531 29.7984 9.09343 29.6378 9.0697C29.3136 9.02177 29.0217 8.847 28.8263 8.58385C28.6754 8.38229 28.0164 7.83327 26.4329 7.33638C24.9034 6.86035 22.6525 6.47348 19.5271 6.45824C16.4016 6.44299 14.1445 6.80787 12.6129 7.27155C11.0247 7.75297 10.3604 8.29039 10.2075 8.49304C10.1095 8.62239 9.98697 8.73117 9.84692 8.81317C9.70688 8.89517 9.55206 8.94879 9.39129 8.97095C9.06662 9.01572 8.73745 8.92968 8.47621 8.73175C8.34686 8.63375 8.23808 8.51123 8.15608 8.37118C8.07408 8.23114 8.02046 8.07632 7.9983 7.91555C7.95353 7.59087 8.03957 7.26171 8.2375 7.00047C8.862 6.17451 10.1348 5.43924 11.8984 4.90718C12.3912 4.75584 12.936 4.61945 13.533 4.4993C13.7507 4.4555 13.8531 4.20275 13.7101 4.03294C13.5384 3.82351 13.3452 3.63272 13.1336 3.46372C13.0397 3.39091 12.9181 3.36849 12.8009 3.38735C11.7646 3.55401 10.4369 3.93685 9.191 4.3965C7.67727 4.95493 6.41122 6.02529 5.74374 7.4942C5.62017 7.76615 5.49708 8.05198 5.37573 8.34847C4.8207 9.71028 4.35802 11.1421 4.10342 12.1398C3.55024 14.3075 3.14558 16.7803 2.90359 19.3173C2.65348 21.9394 3.43449 24.6215 5.68618 25.9884C6.6738 26.5855 7.69284 27.0531 8.58162 27.3378C8.98013 27.4654 9.40663 27.3013 9.64457 26.9571C10.0241 26.408 9.76607 25.6607 9.17167 25.357C7.89718 24.7058 7.11971 23.9204 6.57307 23.0937C6.4838 22.958 6.42213 22.8061 6.39157 22.6466C6.36101 22.4871 6.36217 22.3231 6.39498 22.1641C6.4278 22.005 6.49162 21.854 6.5828 21.7196C6.67398 21.5852 6.79075 21.4701 6.92642 21.3808C7.06209 21.2915 7.21402 21.2298 7.37353 21.1993C7.53304 21.1687 7.69701 21.1699 7.85607 21.2027C8.01513 21.2355 8.16617 21.2993 8.30057 21.3905C8.43497 21.4817 8.55009 21.5985 8.63936 21.7341C9.30381 22.7466 11.0561 24.5419 19.4387 24.5828C27.8238 24.6237 29.5909 22.8455 30.2652 21.8396C30.4482 21.5674 30.7318 21.379 31.0537 21.3158C31.3755 21.2527 31.7093 21.32 31.9815 21.503C32.2538 21.6859 32.4422 21.9695 32.5053 22.2914C32.5684 22.6133 32.5011 22.9471 32.3182 23.2193C31.7632 24.041 30.976 24.8207 29.6922 25.4591ZM10.6842 14.2212C11.3156 13.5497 12.1697 13.1729 13.0579 13.1721C13.9461 13.1815 14.7964 13.5667 15.4213 14.2443C16.0436 14.9245 16.3918 15.8401 16.3872 16.7927C16.3825 17.7453 16.0254 18.6575 15.3965 19.3315C14.765 20.003 13.911 20.3799 13.0227 20.3807C12.5763 20.3738 12.136 20.275 11.7294 20.0906C11.3228 19.9061 10.9586 19.6399 10.6594 19.3084C10.0284 18.6106 9.68353 17.7007 9.69345 16.7601C9.6981 15.8075 10.0553 14.8953 10.6842 14.2212ZM25.9304 13.2348C25.0422 13.2357 24.1882 13.6125 23.5567 14.284C22.9278 14.958 22.5706 15.8703 22.566 16.8228C22.5613 17.7754 22.9096 18.6911 23.5319 19.3712C24.1568 20.0488 25.0071 20.434 25.8953 20.4435C26.7835 20.4427 27.6375 20.0658 28.269 19.3943C28.8979 18.7203 29.2551 17.808 29.2597 16.8555C29.2644 15.9029 28.9161 14.9872 28.2938 14.3071C27.9946 13.9757 27.6303 13.7094 27.2237 13.525C26.8171 13.3405 26.3769 13.2417 25.9304 13.2348Z" fill="white"/>
</svg>
