<svg width="22" height="34" viewBox="0 0 22 34" fill="none" xmlns="http://www.w3.org/2000/svg">
<path id="Vector" d="M15.9151 0.803711C13.2722 0.803711 10.7376 1.67956 8.86881 3.23859C7.00003 4.79761 5.95016 6.9121 5.95016 9.11689V13.7453H0.617591C0.350424 13.7453 0.132812 13.9251 0.132812 14.1497V20.2611C0.132812 20.4839 0.34827 20.6655 0.617591 20.6655H5.95016V33.2027C5.95016 33.4255 6.16562 33.6071 6.43494 33.6071H13.7605C14.0277 33.6071 14.2453 33.4273 14.2453 33.2027V20.6655H19.6252C19.8472 20.6655 20.0411 20.5397 20.0949 20.3599L21.9263 14.2486C21.9443 14.189 21.9458 14.1267 21.9306 14.0665C21.9155 14.0063 21.884 13.9498 21.8388 13.9013C21.7935 13.8528 21.7355 13.8135 21.6693 13.7865C21.6031 13.7594 21.5303 13.7454 21.4566 13.7453H14.2453V9.11689C14.2453 8.93396 14.2885 8.75282 14.3724 8.58381C14.4563 8.4148 14.5793 8.26123 14.7343 8.13188C14.8894 8.00253 15.0735 7.89992 15.2761 7.82991C15.4786 7.7599 15.6958 7.72387 15.9151 7.72387H21.5169C21.7841 7.72387 22.0017 7.54413 22.0017 7.31945V1.20814C22.0017 0.985253 21.7863 0.803711 21.5169 0.803711H15.9151Z" fill="white"/>
</svg>
